<svg width="96" height="96" xmlns="http://www.w3.org/2000/svg" xmlns:xlink="http://www.w3.org/1999/xlink" xml:space="preserve" overflow="hidden"><defs><clipPath id="clip0"><rect x="480" y="151" width="96" height="96"/></clipPath></defs><g clip-path="url(#clip0)" transform="translate(-480 -151)"><path d="M542.618 204.72C546.926 206.266 551.003 208.028 554.378 210.789 555.995 212.05 556.956 213.973 556.995 216.023L558.751 230.417C558.893 231.505 558.414 232.581 557.512 233.204 555.792 234.316 553.942 235.213 552.004 235.876L552.004 237.985C554.338 237.236 556.565 236.186 558.628 234.863 560.154 233.822 560.968 232.014 560.737 230.182L558.994 215.93C558.93 213.306 557.695 210.847 555.628 209.229 552.001 206.261 547.693 204.412 543.163 202.793L538.241 200.773C537.489 200.467 536.998 199.735 537 198.923L537 195.975C540.774 193.152 542.998 188.716 543.002 184.002L543.002 181.104C543.52 181.317 544.073 181.433 544.633 181.445 545.185 181.445 545.633 180.997 545.633 180.445 545.633 180.337 545.615 180.231 545.582 180.129L544.569 177.089C544.127 175.701 543.773 174.287 543.51 172.855 542.524 168.02 539.344 163.919 534.906 161.761 534.194 161.39 533.334 161.454 532.684 161.925L532.383 161.477C531.973 160.844 531.325 160.403 530.586 160.255 522.845 158.8 515.381 163.714 512.837 171.498 512.401 172.855 512.179 174.272 512.177 175.698L512.168 177.192C512.161 178.591 511.873 179.973 511.32 181.258L509.458 185.606C509.24 186.114 509.475 186.702 509.983 186.919 510.108 186.973 510.242 187 510.377 187 510.455 187 510.533 186.991 510.608 186.973 510.776 186.933 511.727 186.703 513.185 186.289 513.786 190.15 515.871 193.623 518.995 195.969L518.995 198.923C518.997 199.735 518.506 200.467 517.754 200.773L512.799 202.807C508.283 204.423 503.991 206.267 500.388 209.215 498.312 210.835 497.071 213.298 497.005 215.93L495.263 230.189C495.034 232.02 495.849 233.824 497.374 234.864 499.439 236.187 501.668 237.237 504.004 237.987L504.004 235.878C502.063 235.215 500.212 234.317 498.489 233.204 497.588 232.583 497.11 231.51 497.249 230.424L498.996 216.124 499.004 216.024C499.044 213.967 500.012 212.039 501.637 210.777 504.998 208.027 509.07 206.268 513.377 204.723L515.457 203.993C518.162 205.859 522.89 207.003 528 207.003 533.108 207.003 537.836 205.859 540.541 203.993ZM513.159 182.046C513.817 180.517 514.16 178.87 514.169 177.205L514.178 175.711C514.178 174.492 514.367 173.28 514.739 172.119 516.716 166.066 521.999 162 527.884 162 528.667 162.001 529.448 162.075 530.217 162.221 530.429 162.274 530.61 162.408 530.724 162.594L531.616 163.918C531.924 164.376 532.546 164.497 533.004 164.189 533.019 164.179 533.034 164.168 533.049 164.157L533.854 163.548C533.886 163.521 533.93 163.513 533.97 163.528 537.886 165.389 540.695 168.989 541.547 173.24L541.548 173.24C541.827 174.756 542.202 176.253 542.671 177.721L543.081 178.95C540.965 177.752 538.474 174.636 537.141 172.51 536.967 172.233 536.67 172.059 536.344 172.042 536.018 172.023 535.703 172.167 535.504 172.427 530.501 178.858 517.143 183.095 512.104 184.507ZM515.129 185.713C521.01 183.905 531.103 180.181 536.196 174.695 537.532 176.674 539.151 178.447 541.002 179.955L541.002 184.002C541.006 191.178 535.193 196.999 528.017 197.003 521.497 197.007 515.983 192.177 515.129 185.713ZM528.001 205.002C524.453 205.09 520.928 204.394 517.679 202.965L518.513 202.623C520.017 202.01 520.998 200.547 520.995 198.923L520.995 197.245C525.369 199.583 530.621 199.589 535 197.26L535 198.923C534.997 200.547 535.978 202.01 537.481 202.623L538.318 202.967C535.07 204.395 531.548 205.09 528.001 205.002Z" fill="#FFFFFF"/><path d="M550.004 216.54C549.998 214.579 548.404 212.995 546.444 213 546.441 213 546.437 213 546.434 213L509.544 213C507.59 213.002 506.006 214.586 506.004 216.54L506.004 239.19 499.004 239.19 499.004 241.464C499.017 243.413 500.595 244.989 502.544 245L553.468 245C555.417 244.987 556.993 243.409 557.004 241.46L557.004 239.19 550.004 239.19ZM555.004 241.19 555.004 241.456C554.999 242.305 554.313 242.993 553.464 243L502.548 243C501.699 242.995 501.011 242.309 501.004 241.46L501.004 241.19 508.004 241.19 508.004 216.54C508.005 215.69 508.694 215.001 509.544 215L546.464 215C547.314 215.001 548.003 215.69 548.004 216.54L548.004 241.19Z" fill="#FFFFFF"/><path d="M521.416 223.03 515.806 228.64 521.416 234.25 522.826 232.84 518.636 228.64 522.826 224.44 521.416 223.03Z" fill="#FFFFFF"/><path d="M533.146 224.44 537.336 228.64 533.146 232.84 534.556 234.25 540.166 228.64 534.556 223.03 533.146 224.44Z" fill="#FFFFFF"/><path d="M524.706 234.18 526.556 234.95 531.236 223.63 529.396 222.86 524.706 234.18Z" fill="#FFFFFF"/></g></svg>