<svg width="96" height="96" xmlns="http://www.w3.org/2000/svg" xmlns:xlink="http://www.w3.org/1999/xlink" xml:space="preserve" overflow="hidden"><defs><clipPath id="clip0"><rect x="0" y="0" width="96" height="96"/></clipPath></defs><g clip-path="url(#clip0)"><path d="M48 10C27.0071 9.99393 9.98408 27.0071 9.978 48 9.97193 68.9929 26.9851 86.0159 47.978 86.022 68.9709 86.0281 85.9939 69.0149 86 48.022 86 48.018 86 48.014 86 48.01 86.011 27.0287 69.0113 10.011 48.03 10 48.02 10 48.01 10 48 10ZM48 84.021C28.1117 84.0271 11.9841 67.9093 11.978 48.021 11.9719 28.1327 28.0897 12.0051 47.978 11.999 67.8663 11.9929 83.9939 28.1107 84 47.999 84 48.0037 84 48.0083 84 48.013 83.9802 67.8888 67.8758 83.9981 48 84.024Z" fill="#FF0000"/><path d="M62.041 32.557 47.998 46.6 33.955 32.557 32.541 33.971 46.584 48.014 32.541 62.057 33.955 63.471 47.998 49.428 62.041 63.471 63.455 62.057 49.412 48.014 63.455 33.971 62.041 32.557Z" fill="#FF0000"/></g></svg>